<svg width="49" height="24" viewBox="0 0 49 24" fill="none" xmlns="http://www.w3.org/2000/svg">
<g clip-path="url(#clip0_2_844)">
<path d="M45.3784 0.0899658L45.3682 0.0907471C44.539 0.15055 43.4344 0.398438 42.3875 0.818872H36.4944H8.14155H5.89285C5.89285 0.818872 1.93881 18.07 1.93881 18.07H1.94246H20.2345H27.6581C28.204 18.3886 28.8673 18.5746 29.6081 18.6392L29.6205 18.6402H30.9149L30.9259 18.6393C31.3398 18.607 31.7715 18.547 32.2178 18.4598C32.9873 18.3093 33.7991 18.079 34.6401 17.7724C35.2767 17.5403 35.9304 17.2658 36.5934 16.9471L36.5936 16.947C38.0364 16.2554 39.5238 15.3648 40.9826 14.2909C41.4633 13.9373 41.9244 13.5747 42.3669 13.206L42.3671 13.2058C42.7729 12.8681 43.1625 12.5251 43.5347 12.1781L43.5363 12.1765L43.538 12.1749C44.5836 11.1673 45.3778 10.1428 45.8383 9.21717C46.0781 8.7351 46.2286 8.27904 46.2662 7.85571C46.3038 7.43245 46.2223 7.03181 45.9845 6.71756L45.9844 6.71743C45.81 6.48671 45.5651 6.33404 45.2841 6.23344C46.1994 5.4819 46.9444 4.67932 47.433 3.89399C48.0036 2.97683 48.2581 2.06786 47.9796 1.30272V1.30258C47.8014 0.811096 47.398 0.4417 46.8676 0.250382H46.8675L46.8673 0.250253C46.6317 0.165508 46.374 0.114255 46.099 0.0910075L46.0871 0.0899658H45.3784ZM46.0586 0.658455C46.2908 0.661438 46.4973 0.721214 46.675 0.785148C47.0789 0.930907 47.3273 1.17095 47.4452 1.49635L47.4453 1.49661V1.49687C47.6329 2.01168 47.4707 2.75751 46.9504 3.59374C46.4301 4.42997 45.5701 5.33649 44.4777 6.15611L43.8748 6.60858L44.6264 6.66679C45.0711 6.70124 45.3639 6.83891 45.5311 7.06028L45.5313 7.06041C45.6684 7.24157 45.7288 7.48176 45.7 7.80546C45.6713 8.12916 45.5471 8.5262 45.3293 8.96393C44.9113 9.80422 44.1544 10.791 43.1455 11.7637C42.7817 12.1028 42.4007 12.4384 42.0034 12.769L42.0033 12.7691C41.569 13.1309 41.1169 13.4866 40.6458 13.8331H40.6457C39.2146 14.8867 37.7564 15.7592 36.3477 16.4345L36.3474 16.4346H36.3473C35.7009 16.7454 35.0643 17.0126 34.4454 17.2383C33.629 17.536 32.8448 17.758 32.1087 17.902C31.6846 17.9849 31.2768 18.0413 30.8889 18.0719H29.6509C29.6451 18.0713 29.6395 18.0706 29.6337 18.0701H29.7482C28.6148 17.9712 27.7199 17.5732 27.1867 16.8479C27.0878 16.7138 27.0061 16.5693 26.9345 16.4181C26.889 16.3067 26.8463 16.1943 26.8031 16.0806C26.6894 15.7191 26.6441 15.3179 26.6646 14.8905C26.7214 13.6991 27.2804 12.2819 28.249 10.7979C29.2778 9.22082 30.7689 7.56789 32.6151 6.03399C33.0289 5.69044 33.4568 5.35116 33.9047 5.02149C34.4583 4.61417 35.0162 4.23911 35.5743 3.88828C37.6308 2.59357 39.6822 1.68766 41.5 1.22748C39.7629 1.79418 37.8115 2.75617 35.8835 4.06589C35.8141 4.11273 35.7456 4.16066 35.6773 4.20795C34.6076 4.94915 33.6385 5.73641 32.7927 6.53138C30.0712 9.09036 28.6327 11.742 29.2863 13.2954C29.3329 13.4023 29.3885 13.5043 29.4533 13.6009C30.1558 14.6343 31.897 14.813 34.1035 14.2582C34.2536 14.2207 34.4037 14.1782 34.5583 14.1339C35.2632 13.9304 36.0114 13.6556 36.7822 13.3168C36.9675 13.235 37.1548 13.1508 37.3435 13.0609C37.3628 13.0518 37.3811 13.0428 37.4004 13.0326C39.8332 11.8238 41.7027 10.4329 42.1074 9.59727C42.1961 9.4155 42.2174 9.26046 42.1572 9.13894C41.8684 8.55348 39.8479 8.94907 37.4004 10.0094C37.2037 10.0946 37.0047 10.1823 36.8035 10.2758C36.9672 10.1238 37.1377 9.97114 37.3116 9.82097C37.589 9.58201 37.8761 9.34836 38.1819 9.11758C38.6605 8.75517 39.1444 8.42757 39.6207 8.13711C41.8511 6.4544 42.9787 4.8627 42.7434 4.27201C42.699 4.16071 42.6046 4.08411 42.4591 4.0375C41.9942 3.88961 41.1455 4.06612 40.1145 4.48868C39.2641 4.83745 38.2874 5.35466 37.2973 5.99844L37.1624 6.08724C37.1624 6.08724 37.1375 6.10157 37.1375 6.10157C37.1375 6.10157 36.6615 6.41771 36.6615 6.41771C36.6615 6.41771 36.9349 5.9168 36.9349 5.9168C37.3407 5.17389 38.0018 4.39871 38.8249 3.67865C39.4285 3.15219 40.1182 2.65618 40.8605 2.22214C41.1413 2.05776 41.4217 1.90512 41.7025 1.76745C41.9901 1.62694 42.2778 1.50207 42.5586 1.39089C43.9269 0.918967 44.724 0.641312 46.0586 0.658455ZM26.2915 0.843742C26.1801 2.54407 26.5098 5.03453 27.2578 7.7996C27.3908 8.29162 27.5356 8.79237 27.6948 9.29882C27.7937 9.61156 27.8957 9.91944 28.0003 10.2225C27.9389 10.3128 27.8771 10.4024 27.8191 10.4924C26.8858 11.9228 26.3403 13.2745 26.2027 14.45C25.8083 13.129 25.5112 11.6822 25.343 10.1479C25.2952 9.7083 25.2578 9.27362 25.2328 8.84413C25.0487 5.72437 25.456 2.89626 26.2915 0.843742ZM7.6655 3.05702C7.68679 3.05652 7.70777 3.05702 7.72944 3.05702C7.72944 3.05702 11.9322 3.05702 11.9322 3.05702C12.2914 3.05702 12.5691 3.12433 12.7669 3.2595C12.9636 3.39546 13.0374 3.57133 12.9908 3.78528C12.9908 3.78528 12.4899 6.04817 12.4899 6.04817C12.4899 6.04817 11.0085 6.04817 11.0085 6.04817C11.0085 6.04817 11.4952 3.8457 11.4952 3.8457H7.78634C7.78634 3.8457 6.44702 9.89921 6.44702 9.89921C6.44702 9.89921 5.96394 12.0911 5.96394 12.0911C5.96394 12.0911 9.66915 12.0911 9.66915 12.0911C9.66915 12.0911 9.6728 12.0769 9.6728 12.0769C9.6728 12.0769 10.4152 8.7233 10.4152 8.7233C10.4152 8.7233 8.67449 8.7233 8.67449 8.7233C8.67449 8.7233 8.84142 7.96653 8.84142 7.96653C8.84142 7.96653 12.0636 7.96653 12.0636 7.96653C12.0636 7.96653 11.14 12.1516 11.14 12.1516C11.1275 12.2111 11.1056 12.2651 11.0761 12.3185C10.9999 12.4572 10.867 12.5759 10.6817 12.6737C10.4247 12.809 10.1172 12.8762 9.75795 12.8762C9.75795 12.8762 5.55886 12.8762 5.55886 12.8762C5.19963 12.8762 4.9219 12.809 4.7241 12.6737C4.52743 12.5384 4.45252 12.3657 4.50027 12.1516C4.50027 12.1516 6.35105 3.78528 6.35105 3.78528C6.3988 3.57133 6.54781 3.39546 6.80587 3.2595C6.81496 3.25461 6.82516 3.25348 6.83426 3.24882C7.06979 3.13084 7.34617 3.06457 7.6655 3.05702ZM14.252 3.05702C14.252 3.05702 19.5417 3.05702 19.5417 3.05702C19.8964 3.05702 20.1753 3.12433 20.3731 3.2595C20.572 3.39546 20.6481 3.57133 20.6004 3.78528C20.6004 3.78528 19.6128 8.24726 19.6128 8.24726C19.5662 8.45984 19.4136 8.63333 19.1544 8.76952C18.8952 8.90617 18.5902 8.97551 18.2344 8.97551H14.3905L13.6481 12.3255C13.6481 12.3255 13.5272 12.8762 13.5272 12.8762C13.5272 12.8762 12.0777 12.8762 12.0777 12.8762C12.0777 12.8762 12.1879 12.3789 12.1879 12.3789C12.1879 12.3789 14.252 3.05702 14.252 3.05702ZM21.5595 3.05702C21.5595 3.05702 23.009 3.05702 23.009 3.05702C23.009 3.05702 21.3677 10.4711 21.3677 10.4711C21.3677 10.4711 21.0089 12.0911 21.0089 12.0911C21.0089 12.0911 24.4762 12.0911 24.4762 12.0911C24.5126 12.357 24.5551 12.6181 24.6005 12.8762C24.6005 12.8762 19.3854 12.8762 19.3854 12.8762C19.3854 12.8762 19.7975 11.0147 19.7975 11.0147C19.7975 11.0147 21.5595 3.05702 21.5595 3.05702ZM15.5274 3.8457C15.5274 3.8457 14.5646 8.18684 14.5646 8.18684C14.5646 8.18684 18.1775 8.18684 18.1775 8.18684C18.1775 8.18684 19.1367 3.8457 19.1367 3.8457H15.5274ZM12.4899 13.5583C12.504 13.5579 12.5183 13.5583 12.5326 13.5583C12.7008 13.5583 12.8477 13.5879 12.9659 13.6436C13.0921 13.7027 13.1824 13.7905 13.2324 13.9065C13.2813 14.019 13.294 14.1468 13.2678 14.2866C13.2678 14.2866 13.2573 14.3398 13.2573 14.3398C13.2573 14.3398 12.8415 14.3398 12.8415 14.3398C12.8415 14.3398 12.8452 14.2901 12.8452 14.2901C12.8559 14.1924 12.8438 14.1156 12.8061 14.0628C12.8012 14.0561 12.794 14.0473 12.7883 14.0414C12.7789 14.0318 12.7648 14.0209 12.7527 14.013C12.6946 13.9764 12.6036 13.9562 12.4863 13.9562C12.3306 13.9562 12.2142 13.9833 12.1346 14.0379C12.0573 14.0913 12.0085 14.151 11.9926 14.2226C11.9767 14.2954 12.0028 14.3336 12.021 14.354C12.0215 14.3546 12.0238 14.357 12.0245 14.3577C12.0475 14.3773 12.1275 14.4233 12.3762 14.482C12.6013 14.5366 12.7504 14.5855 12.8345 14.6276C12.9618 14.6924 13.0508 14.7764 13.0974 14.8798C13.144 14.9821 13.1542 15.1019 13.1258 15.2315C13.0974 15.3577 13.033 15.4741 12.9375 15.5832C12.8432 15.6923 12.723 15.7788 12.5787 15.8391C12.4354 15.8982 12.2784 15.9314 12.1169 15.9314C11.9123 15.9314 11.748 15.9004 11.6195 15.8391C11.4854 15.7754 11.3886 15.6749 11.3318 15.5441C11.2772 15.4168 11.2655 15.2723 11.2962 15.1143C11.2962 15.1143 11.3069 15.0646 11.3069 15.0646H11.7155L11.7119 15.1143C11.7016 15.2087 11.7117 15.2848 11.7367 15.3417C11.7606 15.3962 11.8062 15.4414 11.8789 15.4767C11.9562 15.5142 12.0528 15.5335 12.163 15.5335C12.2619 15.5335 12.3524 15.5169 12.4331 15.4874C12.5127 15.4589 12.5759 15.4214 12.6214 15.3737C12.6657 15.3259 12.6916 15.2754 12.703 15.2208C12.7144 15.1719 12.7118 15.1307 12.6925 15.0966C12.6709 15.0602 12.628 15.0279 12.5609 15.0006C12.5609 15.0006 12.2128 14.8976 12.2128 14.8976C12.0184 14.8488 11.8875 14.8021 11.8113 14.7555C11.7079 14.6941 11.6333 14.6154 11.5947 14.5211C11.556 14.4279 11.552 14.3245 11.577 14.212C11.6031 14.0915 11.6611 13.9768 11.7509 13.8745C11.8419 13.771 11.9593 13.6899 12.0991 13.6365C12.2227 13.5901 12.3528 13.5629 12.4899 13.5583ZM16.2201 13.5654C16.2425 13.5636 16.2636 13.5654 16.2875 13.5654C16.2875 13.5654 16.5434 13.5939 16.5434 13.5939L16.6287 13.6009C16.6287 13.6009 16.5043 13.917 16.5043 13.917L16.4794 13.9668C16.4794 13.9668 16.284 13.9491 16.284 13.9491C16.2263 13.9491 16.1839 13.9579 16.1561 13.9775C16.1543 13.9789 16.1507 13.9831 16.149 13.9846C16.1452 13.9879 16.139 13.9936 16.1348 13.9988C16.1177 14.0213 16.0969 14.0614 16.0815 14.1338C16.0815 14.1338 16.0741 14.1645 16.0673 14.1906C16.1571 14.1906 16.3728 14.1906 16.3728 14.1906C16.3728 14.1906 16.2947 14.5423 16.2947 14.5423C16.2947 14.5423 16.0713 14.5423 15.9962 14.5423C15.9735 14.6446 15.6943 15.8958 15.6943 15.8958C15.6943 15.8958 15.2822 15.8958 15.2822 15.8958C15.2822 15.8958 15.55 14.6935 15.5841 14.5423C15.5148 14.5423 15.3461 14.5423 15.3461 14.5423C15.3461 14.5423 15.4244 14.1906 15.4244 14.1906C15.4244 14.1906 15.5939 14.1906 15.6587 14.1906C15.6701 14.1417 15.6872 14.0805 15.6872 14.0805C15.7123 13.9668 15.7383 13.8851 15.7724 13.8282C15.819 13.7498 15.8849 13.6842 15.9678 13.6365C16.0362 13.5967 16.1226 13.5729 16.2201 13.5654ZM17.2042 13.5832C17.2042 13.5832 17.0964 14.0678 17.0691 14.1906C17.1487 14.1906 17.3356 14.1906 17.3356 14.1906C17.3356 14.1906 17.2574 14.5423 17.2574 14.5423C17.2574 14.5423 17.0615 14.5423 16.991 14.5423C16.9694 14.6401 16.7991 15.3986 16.7991 15.3986C16.7991 15.3986 16.7849 15.4896 16.7849 15.5157C16.7849 15.5166 16.7848 15.5186 16.7849 15.5193C16.785 15.5195 16.7848 15.5227 16.7849 15.5229C16.785 15.5231 16.7883 15.5228 16.7884 15.5229C16.7884 15.5229 16.8311 15.5264 16.8311 15.5264L17.0264 15.5122L17.0052 15.8284C17.0052 15.8284 17.0087 15.8853 17.0087 15.8853C17.0087 15.8853 16.7281 15.9172 16.7281 15.9172C16.6167 15.9172 16.535 15.8991 16.4759 15.8604C16.4134 15.8195 16.3769 15.7652 16.3621 15.697C16.3598 15.6845 16.3551 15.6662 16.3551 15.6401C16.3551 15.5889 16.3647 15.5024 16.3977 15.3523C16.3977 15.3523 16.5471 14.6833 16.5789 14.5423C16.5255 14.5423 16.3835 14.5423 16.3835 14.5423C16.3835 14.5423 16.4616 14.1906 16.4616 14.1906C16.4616 14.1906 16.6002 14.1906 16.657 14.1906C16.6752 14.1088 16.7388 13.8282 16.7388 13.8282C16.7388 13.8282 17.0691 13.6542 17.0691 13.6542C17.0691 13.6542 17.2042 13.5832 17.2042 13.5832ZM4.11303 13.5974H5.7116L5.6228 13.9953C5.6228 13.9953 4.55636 13.9953 4.45405 13.9953C4.43586 14.076 4.36301 14.4029 4.33686 14.5211H5.34923L5.26043 14.9189H4.24806C4.22646 15.0178 4.03126 15.8958 4.03126 15.8958C4.03126 15.8958 3.60144 15.8958 3.60144 15.8958C3.60144 15.8958 4.11303 13.5974 4.11303 13.5974ZM6.25522 14.1587C6.27126 14.1567 6.28879 14.1587 6.30496 14.1587C6.40727 14.1587 6.50177 14.1898 6.59272 14.2545C6.59272 14.2546 6.64949 14.2936 6.64949 14.2936L6.42931 14.656C6.42931 14.656 6.36889 14.6134 6.36889 14.6134C6.32455 14.585 6.27672 14.5708 6.2267 14.5708C6.1835 14.5708 6.14341 14.5861 6.10248 14.6134C6.05929 14.6418 6.02313 14.6794 5.99584 14.7306C5.9481 14.8181 5.91321 14.9163 5.88933 15.022C5.88933 15.022 5.69741 15.8958 5.69741 15.8958C5.69741 15.8958 5.2853 15.8958 5.2853 15.8958C5.2853 15.8958 5.6655 14.1906 5.6655 14.1906C5.66551 14.1906 6.0491 14.1906 6.0491 14.1906C6.0491 14.1906 6.03594 14.2424 6.03139 14.2617C6.04958 14.2481 6.06873 14.2294 6.08465 14.2191C6.13971 14.1863 6.19792 14.1658 6.25522 14.1587ZM7.47722 14.1587C7.50204 14.1568 7.52647 14.1587 7.55183 14.1587C7.78374 14.1587 7.95928 14.24 8.0741 14.4003C8.14572 14.5037 8.18425 14.6316 8.18425 14.784C8.18425 14.8681 8.17382 14.9585 8.15222 15.0574L8.12032 15.1818C8.12032 15.1818 7.07807 15.1818 6.96212 15.1818C6.95985 15.2056 6.9586 15.2313 6.9586 15.2529C6.9586 15.3415 6.97672 15.4113 7.01538 15.4625C7.03374 15.4875 7.05515 15.51 7.07944 15.5264C7.12522 15.5563 7.18421 15.5726 7.2534 15.5726C7.33752 15.5726 7.41152 15.5494 7.48087 15.5051C7.54681 15.463 7.6098 15.3958 7.6655 15.3026C7.6655 15.3026 8.106 15.3026 8.106 15.3026C8.106 15.3026 8.06694 15.3879 8.06694 15.3879C7.98281 15.5584 7.86554 15.6914 7.71889 15.7858C7.57224 15.8802 7.39691 15.9314 7.20366 15.9314C6.95242 15.9314 6.76544 15.8501 6.64949 15.6898C6.53467 15.533 6.50998 15.3161 6.57136 15.0432C6.63275 14.7658 6.75526 14.5442 6.93373 14.3896C7.09371 14.2509 7.27518 14.174 7.47722 14.1587ZM9.32813 14.1587C9.35295 14.1568 9.37738 14.1587 9.40274 14.1587C9.63466 14.1587 9.81019 14.24 9.92501 14.4003C9.99663 14.5037 10.035 14.6316 10.035 14.784C10.035 14.867 10.0247 14.9561 10.0031 15.0539C10.0031 15.0539 9.9711 15.1818 9.9711 15.1818C9.9711 15.1818 8.92899 15.1818 8.81303 15.1818C8.81189 15.1977 8.81066 15.2121 8.80952 15.228C8.80866 15.234 8.80992 15.2431 8.80952 15.2493C8.80948 15.2504 8.80952 15.2519 8.80952 15.2529C8.80952 15.2699 8.81189 15.2867 8.81303 15.3026C8.81871 15.3674 8.83559 15.4216 8.86629 15.4625C8.87213 15.4704 8.8777 15.4803 8.88412 15.4874C8.93619 15.5431 9.00981 15.5726 9.10431 15.5726C9.18843 15.5726 9.26344 15.5494 9.33165 15.5051C9.39759 15.463 9.46071 15.3958 9.51642 15.3026C9.51642 15.3026 9.96043 15.3026 9.96043 15.3026C9.96043 15.3026 9.91785 15.3879 9.91785 15.3879C9.83372 15.5584 9.71632 15.6914 9.56967 15.7858C9.42302 15.8802 9.24783 15.9314 9.05457 15.9314C8.80333 15.9314 8.61636 15.8501 8.5004 15.6898C8.42537 15.5875 8.39024 15.4572 8.39024 15.3026C8.39024 15.2787 8.39148 15.253 8.39376 15.228C8.3983 15.1689 8.40749 15.1092 8.42227 15.0432C8.48366 14.767 8.60252 14.5442 8.781 14.3896C8.94097 14.2509 9.12609 14.174 9.32813 14.1587ZM14.3692 14.1587C14.3945 14.1568 14.4179 14.1587 14.4438 14.1587C14.6802 14.1587 14.862 14.2387 14.9802 14.3967C15.0973 14.5548 15.1258 14.7679 15.0655 15.0362C15.0189 15.2454 14.9516 15.4143 14.8595 15.5371C14.7674 15.6599 14.65 15.7602 14.5113 15.8284C14.3738 15.8966 14.228 15.9314 14.0814 15.9314C13.8404 15.9314 13.661 15.849 13.5451 15.6898C13.47 15.5887 13.4314 15.4583 13.4314 15.3026C13.4314 15.2185 13.4406 15.1291 13.4633 15.029C13.5315 14.7244 13.6708 14.4923 13.8754 14.3434C14.0256 14.2349 14.1914 14.1724 14.3692 14.1587ZM20.6111 14.1587C20.6411 14.1569 20.6688 14.1587 20.6999 14.1587C20.8431 14.1587 20.9556 14.1732 21.0409 14.2085C21.1318 14.2448 21.1963 14.2963 21.2327 14.3577C21.2679 14.4157 21.2859 14.4868 21.2859 14.5743C21.2859 14.5743 21.2434 14.8337 21.2434 14.8337C21.2434 14.8337 21.1652 15.1854 21.1652 15.1854C21.0982 15.4855 21.0834 15.598 21.08 15.6401C21.0765 15.6969 21.0818 15.7524 21.0977 15.8035C21.0977 15.8035 21.1262 15.8958 21.1262 15.8958C21.1262 15.8958 20.7069 15.8958 20.7069 15.8958C20.7069 15.8958 20.6892 15.8426 20.6892 15.8426C20.6824 15.8176 20.6843 15.7857 20.682 15.7573C20.6025 15.8062 20.5228 15.8496 20.4512 15.8746C20.3455 15.911 20.2358 15.9314 20.1244 15.9314C19.9311 15.9314 19.788 15.8811 19.7016 15.7822C19.6356 15.7094 19.6056 15.6204 19.6056 15.5193C19.6056 15.4806 19.6107 15.4406 19.6198 15.3986C19.6391 15.3122 19.6743 15.2322 19.73 15.1605C19.7845 15.0901 19.8491 15.032 19.9219 14.99C19.9924 14.9479 20.0709 14.9181 20.1527 14.8976C20.1527 14.8976 20.405 14.8549 20.405 14.8549C20.5994 14.8322 20.7445 14.804 20.8491 14.7733C20.8514 14.7619 20.8561 14.7484 20.8561 14.7484C20.8726 14.6753 20.8706 14.6202 20.8526 14.592C20.8513 14.5902 20.8469 14.5866 20.8455 14.585C20.8416 14.5809 20.8357 14.5745 20.8313 14.5708C20.7885 14.537 20.7156 14.5211 20.6181 14.5211C20.5078 14.5211 20.4263 14.5391 20.3694 14.5743C20.3137 14.6096 20.2621 14.6741 20.2167 14.7661C20.2167 14.7661 19.7869 14.7661 19.7869 14.7661C19.7869 14.7661 19.8259 14.6809 19.8259 14.6809C19.8771 14.5626 19.938 14.4646 20.0142 14.3896C20.0904 14.3145 20.1933 14.2564 20.3126 14.2155C20.4041 14.1853 20.504 14.1653 20.6111 14.1587ZM22.4121 14.1587C22.4281 14.1567 22.4457 14.1587 22.4619 14.1587C22.5653 14.1587 22.6623 14.1898 22.7533 14.2545C22.7533 14.2546 22.8065 14.2936 22.8065 14.2936C22.8065 14.2936 22.5862 14.656 22.5862 14.656C22.5862 14.656 22.5258 14.6134 22.5258 14.6134C22.4815 14.585 22.4361 14.5708 22.3872 14.5708C22.344 14.5708 22.3014 14.5861 22.2594 14.6134C22.2162 14.6418 22.1848 14.6794 22.1564 14.7306C22.1098 14.8181 22.0736 14.9163 22.0497 15.022C22.0497 15.022 21.8544 15.8958 21.8544 15.8958C21.8544 15.8958 21.4423 15.8958 21.4423 15.8958C21.4423 15.8958 21.8224 14.1906 21.8224 14.1906C21.8224 14.1906 22.2061 14.1906 22.2061 14.1906C22.2061 14.1906 22.1965 14.2424 22.1919 14.2617C22.2101 14.2481 22.2281 14.2294 22.2452 14.2191C22.2994 14.1863 22.3549 14.1658 22.4121 14.1587ZM23.6307 14.1587C23.6555 14.1568 23.68 14.1587 23.7053 14.1587C23.9373 14.1587 24.1138 14.24 24.2275 14.4003C24.3002 14.5037 24.3376 14.6316 24.3376 14.784C24.3376 14.8681 24.3237 14.9585 24.3021 15.0574L24.2737 15.1818C24.2737 15.1818 23.2303 15.1818 23.1155 15.1818C23.1132 15.2056 23.1085 15.2313 23.1085 15.2529C23.1085 15.3415 23.1277 15.4113 23.1652 15.4625C23.1711 15.4705 23.1801 15.4803 23.1866 15.4874C23.1903 15.4913 23.1969 15.4979 23.2008 15.5016C23.2516 15.5478 23.3209 15.5726 23.4069 15.5726C23.491 15.5726 23.5649 15.5494 23.6343 15.5051C23.7002 15.463 23.7622 15.3958 23.819 15.3026C23.819 15.3026 24.263 15.3026 24.263 15.3026C24.263 15.3026 24.2205 15.3879 24.2205 15.3879C24.1363 15.5584 24.0178 15.6914 23.8723 15.7858C23.7245 15.8802 23.5516 15.9314 23.3572 15.9314C23.1059 15.9314 22.9225 15.8501 22.8065 15.6898C22.6917 15.533 22.6645 15.3161 22.7247 15.0432C22.7861 14.7658 22.9051 14.5442 23.0836 14.3896C23.2446 14.2509 23.4289 14.174 23.6307 14.1587ZM17.4102 14.1906C17.4102 14.1906 17.833 14.1906 17.833 14.1906C17.833 14.1906 17.8851 15.2025 17.8862 15.2173C17.9033 15.1811 17.9165 15.1507 17.9182 15.1463L18.3836 14.1906C18.3836 14.1906 18.7708 14.1906 18.7708 14.1906C18.7708 14.1906 18.8064 15.1904 18.8064 15.1961C18.8178 15.1756 19.3357 14.1906 19.3357 14.1906C19.3357 14.1906 19.7548 14.1906 19.7548 14.1906C19.7548 14.1906 18.8313 15.8958 18.8313 15.8958C18.8313 15.8958 18.4511 15.8958 18.4511 15.8958C18.4511 15.8958 18.4143 14.9712 18.412 14.9189C18.2551 15.2406 17.9359 15.8958 17.9359 15.8958C17.9359 15.8958 17.5452 15.8958 17.5452 15.8958C17.5452 15.8958 17.4102 14.1906 17.4102 14.1906ZM7.48438 14.5139C7.38646 14.5181 7.29746 14.5534 7.21433 14.6206C7.1484 14.6729 7.104 14.7446 7.06876 14.823C7.06876 14.823 7.76863 14.823 7.76863 14.823C7.76977 14.8105 7.77214 14.7953 7.77214 14.784C7.77214 14.7192 7.76057 14.6689 7.74011 14.6348C7.69009 14.5529 7.61601 14.5139 7.50574 14.5139C7.49913 14.5139 7.49091 14.5137 7.48438 14.5139ZM9.3353 14.5139C9.23737 14.5181 9.14837 14.5534 9.06524 14.6206C8.99931 14.6729 8.95592 14.7446 8.91954 14.823C8.91954 14.823 9.61941 14.823 9.61941 14.823C9.62054 14.8105 9.62306 14.7953 9.62306 14.784C9.62306 14.7192 9.61263 14.6689 9.59103 14.6348C9.5811 14.6181 9.56764 14.6016 9.55548 14.5885C9.50801 14.5395 9.44267 14.5139 9.35652 14.5139C9.34992 14.5139 9.34183 14.5137 9.3353 14.5139ZM23.652 14.5139C23.5513 14.517 23.4573 14.5512 23.3714 14.6206C23.3066 14.6729 23.262 14.7446 23.2257 14.823C23.2257 14.823 23.922 14.823 23.922 14.823C23.9231 14.8105 23.9255 14.7953 23.9255 14.784C23.9255 14.7192 23.9152 14.6689 23.8936 14.6348C23.8447 14.554 23.7694 14.5151 23.6591 14.5139C23.6559 14.514 23.6552 14.5139 23.652 14.5139ZM14.3443 14.5211C14.2503 14.5322 14.1629 14.5751 14.0814 14.649C13.9836 14.7376 13.9128 14.8769 13.8719 15.0611C13.8548 15.1384 13.847 15.2044 13.847 15.2635C13.847 15.3442 13.8624 15.4076 13.8931 15.4553C13.9013 15.4676 13.9122 15.4806 13.9216 15.4909C13.9722 15.5445 14.0426 15.5726 14.1311 15.5726C14.2459 15.5726 14.3471 15.5298 14.4438 15.4411C14.5415 15.3513 14.6113 15.2107 14.6534 15.022C14.692 14.8492 14.6866 14.7201 14.632 14.6383C14.5797 14.5587 14.5034 14.5211 14.3977 14.5211C14.3797 14.5211 14.3617 14.519 14.3443 14.5211ZM20.7638 15.1427C20.6672 15.1688 20.5589 15.191 20.4156 15.2103C20.3088 15.2262 20.2326 15.243 20.1883 15.26C20.1496 15.2759 20.1185 15.2979 20.0923 15.3275C20.0673 15.3559 20.0505 15.3857 20.0426 15.4198C20.0403 15.4334 20.0391 15.4475 20.0391 15.4588C20.0391 15.4598 20.0391 15.4616 20.0391 15.4625C20.0392 15.4652 20.0388 15.4706 20.0391 15.4732C20.0398 15.4783 20.0412 15.4861 20.0426 15.4909C20.0431 15.4925 20.0455 15.4965 20.0461 15.498C20.0473 15.5011 20.0482 15.5057 20.0497 15.5086C20.0514 15.5115 20.0549 15.5165 20.0568 15.5193C20.0598 15.5234 20.0638 15.5296 20.0675 15.5335C20.0959 15.5653 20.1527 15.5797 20.2345 15.5797C20.3243 15.5797 20.4107 15.5627 20.4902 15.5229C20.5687 15.4843 20.6319 15.4266 20.6785 15.3595C20.7126 15.3118 20.7399 15.2382 20.7638 15.1427Z" fill="white"/>
<path d="M44.6236 23.9099L44.9305 22.6117C45.059 22.0331 45.3796 21.6363 45.6672 21.6363C45.8741 21.6363 45.9309 21.7875 45.9207 21.9853C45.915 22.0876 45.8923 22.2025 45.8684 22.3161L45.4887 23.9099H46.3072L46.6142 22.606C46.7551 22.0092 47.0575 21.6363 47.3394 21.6363C47.5338 21.6363 47.6145 21.775 47.6055 21.9728C47.5998 22.0876 47.5759 22.2138 47.5463 22.3286L47.178 23.9099H48.0022L48.399 22.2263C48.4296 22.0751 48.4649 21.8398 48.4706 21.7193C48.4956 21.2191 48.2512 20.9542 47.8101 20.9542C47.4327 20.9542 47.0655 21.1248 46.7869 21.484C46.7767 21.2248 46.5914 20.9542 46.1321 20.9542C45.7604 20.9542 45.4057 21.1225 45.1215 21.5033H45.1101L45.1863 21.0679H44.4565C44.4087 21.3112 44.3508 21.6056 44.2621 21.9489L43.8051 23.9099H44.6236ZM41.7645 23.9099C42.7535 23.9099 43.5163 23.1608 43.5698 22.1411C43.6027 21.4658 43.1821 20.9542 42.4057 20.9542C41.3803 20.9542 40.6447 21.7841 40.5936 22.7868C40.5583 23.5166 41.029 23.9099 41.7645 23.9099ZM41.8975 23.2279C41.6088 23.2279 41.4496 23.0437 41.4667 22.7686C41.4894 22.3105 41.7725 21.6363 42.2601 21.6363C42.5966 21.6363 42.7001 21.8944 42.6865 22.1479C42.6614 22.6481 42.3568 23.2279 41.8975 23.2279ZM39.8308 19.7037L39.5113 20.9952C39.3954 20.9474 39.2442 20.9542 39.126 20.9542C38.0369 20.9542 37.2661 21.8864 37.215 22.8959C37.1809 23.6076 37.5606 23.9099 38.0494 23.9099C38.3916 23.9099 38.7519 23.7588 39.0248 23.3677H39.0361L38.9713 23.9099H39.7421C39.7773 23.5689 39.8512 23.1631 39.9342 22.7925L40.672 19.7037H39.8308ZM39.1669 22.4798C39.0339 23.0403 38.7201 23.2279 38.4723 23.2279C38.2256 23.2279 38.088 23.0562 38.1051 22.7504C38.1335 22.1843 38.5223 21.6363 39.0282 21.6363C39.1703 21.6363 39.2919 21.6579 39.359 21.6898L39.1669 22.4798ZM36.4613 23.1426C36.2259 23.2574 35.9576 23.2279 35.6462 23.2279C35.3983 23.2279 35.2085 23.1847 35.1039 23.1005C35.0493 23.0085 35.0255 22.8652 35.03 22.7731C36.1827 22.8038 36.908 22.5378 36.9455 21.8103C36.9728 21.2612 36.5715 20.9542 35.9883 20.9542C34.9459 20.9542 34.2638 21.8728 34.2195 22.7572C34.1819 23.5291 34.5821 23.9099 35.4063 23.9099C35.7246 23.9099 36.1452 23.8736 36.4897 23.7701L36.4613 23.1426ZM36.1509 21.8103C36.1373 22.0808 35.803 22.0967 35.1437 22.091C35.2164 21.8535 35.4563 21.6363 35.8508 21.6363C36.0452 21.6363 36.1577 21.7102 36.1509 21.8103ZM33.4476 23.1426C33.2122 23.2574 32.944 23.2279 32.6313 23.2279C32.3846 23.2279 32.1937 23.1847 32.0891 23.1005C32.0345 23.0085 32.0118 22.8652 32.0163 22.7731C33.1679 22.8038 33.8943 22.5378 33.9307 21.8103C33.958 21.2612 33.5567 20.9542 32.9735 20.9542C31.9322 20.9542 31.2501 21.8728 31.2058 22.7572C31.1671 23.5291 31.5684 23.9099 32.3926 23.9099C32.7098 23.9099 33.1315 23.8736 33.4748 23.7701L33.4476 23.1426ZM33.1361 21.8103C33.1224 22.0808 32.7882 22.0967 32.13 22.091C32.2016 21.8535 32.4426 21.6363 32.8371 21.6363C33.0315 21.6363 33.1429 21.7102 33.1361 21.8103ZM29.6756 23.9099L29.9303 22.8413C30.0644 22.2627 30.3475 21.75 30.8829 21.75C30.9307 21.75 30.9773 21.7739 31.0125 21.7796L31.2194 20.9599C31.1717 20.9599 31.1194 20.9542 31.0602 20.9542C30.6658 20.9542 30.335 21.2316 30.1144 21.6295H30.0917C30.1246 21.4351 30.1531 21.2509 30.1747 21.0679H29.4437C29.4028 21.3044 29.3368 21.7671 29.2379 22.1843L28.8219 23.9099L29.6756 23.9099ZM25.8718 23.9099H26.7199L27.1019 22.3184H28.4785L28.6559 21.6363H27.2724L27.502 20.6132H28.9742L29.1515 19.8174H26.8268L25.8718 23.9099ZM22.2227 23.9099L22.5228 22.6299C22.6785 21.9785 23.0139 21.75 23.2901 21.75C23.5084 21.75 23.5721 21.8432 23.5618 21.9785C23.5561 22.0876 23.5391 22.2025 23.5163 22.3048L23.1344 23.9099H23.9824L24.3849 22.2263C24.4156 22.0808 24.4497 21.8637 24.4565 21.7318C24.4815 21.2191 24.2257 21.0327 23.7551 21.0327C23.3777 21.0327 23.0105 21.2077 22.7206 21.5874H22.7092L22.7865 21.0679H22.0385C21.9896 21.3112 21.9271 21.6056 21.8384 21.9489L21.3746 23.9099H22.2227ZM20.597 23.9099L21.2848 21.0679H20.4424L19.7501 23.9099H20.597ZM20.9915 20.7269C21.2802 20.7269 21.5372 20.4881 21.5531 20.0789C21.5667 19.8015 21.3871 19.7037 21.1222 19.7037C20.846 19.7037 20.5936 19.8834 20.5788 20.1516C20.5652 20.4222 20.7448 20.7269 20.9915 20.7269ZM16.0611 23.7758C16.2248 23.9031 16.5681 23.9043 16.9262 23.9099C17.6913 23.9156 18.2688 23.5814 18.3029 22.9675C18.3222 22.5583 18.0051 22.3161 17.6947 22.1536C17.4708 22.0456 17.3582 21.9421 17.3639 21.8216C17.3719 21.6591 17.5242 21.6363 17.7481 21.6363C18.0005 21.6363 18.2029 21.667 18.3188 21.6898L18.5485 21.0736C18.4177 20.9952 18.1563 20.9542 17.8209 20.9542C17.0786 20.9542 16.5352 21.3464 16.5045 21.9421C16.4863 22.3105 16.7512 22.5583 17.0717 22.7265C17.3309 22.8595 17.4196 22.9618 17.4128 23.1062C17.4048 23.2517 17.2752 23.2279 17.0399 23.2279C16.7637 23.2279 16.4579 23.1915 16.2964 23.1665L16.0611 23.7758ZM15.5052 23.9099C15.512 23.5496 15.5984 22.9834 15.6882 22.6117L16.0532 21.0679C15.8212 20.9895 15.4597 20.9542 15.1119 20.9542C13.7 20.9542 12.9997 22.0001 12.9508 22.98C12.9201 23.5951 13.2532 23.9099 13.7716 23.9099C14.1069 23.9099 14.4855 23.7474 14.7799 23.2586H14.7924C14.7697 23.4939 14.7424 23.7224 14.7276 23.9099H15.5052ZM14.922 22.2866C14.7561 23.0096 14.4173 23.2279 14.1649 23.2279C13.9296 23.2279 13.8273 23.0607 13.8409 22.8175C13.8682 22.2684 14.3025 21.6363 14.8504 21.6363C14.9391 21.6363 15.0084 21.6204 15.0732 21.6045L14.922 22.2866ZM11.1171 23.1426C10.8818 23.2574 10.6135 23.2279 10.302 23.2279C10.0542 23.2279 9.86434 23.1847 9.75975 23.1005C9.70518 23.0085 9.68131 22.8652 9.68586 22.7731C10.8386 22.8038 11.5639 22.5378 11.6014 21.8103C11.6287 21.2612 11.2274 20.9542 10.6442 20.9542C9.60173 20.9542 8.91965 21.8728 8.87531 22.7572C8.8378 23.5291 9.23795 23.9099 10.0621 23.9099C10.3805 23.9099 10.8011 23.8736 11.1455 23.7701L11.1171 23.1426ZM10.8068 21.8103C10.7931 22.0808 10.4589 22.0967 9.79954 22.091C9.8723 21.8535 10.1122 21.6363 10.5066 21.6363C10.701 21.6363 10.8136 21.7102 10.8068 21.8103ZM8.10341 23.1426C7.86809 23.2574 7.5998 23.2279 7.28718 23.2279C7.04049 23.2279 6.84951 23.1847 6.74492 23.1005C6.69035 23.0085 6.66762 22.8652 6.67216 22.7731C7.82376 22.8038 8.55018 22.5378 8.58656 21.8103C8.61384 21.2612 8.21255 20.9542 7.62936 20.9542C6.58804 20.9542 5.90595 21.8728 5.86161 22.7572C5.82296 23.5291 6.22312 23.9099 7.04845 23.9099C7.36562 23.9099 7.78624 23.8736 8.1307 23.7701L8.10341 23.1426ZM7.79193 21.8103C7.77828 22.0808 7.44406 22.0967 6.78584 22.091C6.85746 21.8535 7.09847 21.6363 7.49294 21.6363C7.68734 21.6363 7.79875 21.7102 7.79193 21.8103ZM4.33146 23.9099L4.58611 22.8413C4.72025 22.2627 5.00332 21.75 5.53876 21.75C5.5865 21.75 5.63311 21.7739 5.66836 21.7796L5.87526 20.9599C5.82751 20.9599 5.77522 20.9542 5.7161 20.9542C5.32163 20.9542 4.99081 21.2316 4.77027 21.6295H4.74754C4.7805 21.4351 4.80892 21.2509 4.83052 21.0679H4.09955C4.05749 21.3044 3.99269 21.7671 3.89379 22.1843L3.47771 23.9099L4.33146 23.9099ZM0.527679 23.9099H1.37574L1.75658 22.3184H3.1344L3.31174 21.6363H1.92824L2.15787 20.6132H3.63005L3.80739 19.8174H1.4826L0.527679 23.9099Z" fill="white"/>
</g>
<defs>
<clipPath id="clip0_2_844">
<rect width="48" height="23.8667" fill="white" transform="translate(0.5 0.0666504)"/>
</clipPath>
</defs>
</svg>
